# xmcd CD database file generated by Grip 2.91
# 
# Track frame offsets:
#       150
#       26507
#       39595
#       54100
#       71990
#       89475
#       113797
#       126267
#       148692
#       167595
#       187580
#       207712
# 
# Disc length: 3001 seconds
# 
# Revision: 3
# Processed by: cddbd v1.4b41PL1 Copyright (c) Steve Scherf et al.
# Submitted via: Grip 2.91
# 
DISCID=a90bb70c
DTITLE=Paul Sprawl - Blue Suitcase
DYEAR=1900
DGENRE=
TTITLE0=Santa In The Desert
TTITLE1=Cactus Lawn
TTITLE2=Blue Suitcase
TTITLE3=Lover's Hand
TTITLE4=Balance
TTITLE5=Not Protected
TTITLE6=Jean
TTITLE7=Good Times
TTITLE8=Edward's Story
TTITLE9=Red Room
TTITLE10=Out Of Our Mind
TTITLE11=Good Morning Sunshine
EXTD=
EXTT0=
EXTT1=
EXTT2=
EXTT3=
EXTT4=
EXTT5=
EXTT6=
EXTT7=
EXTT8=
EXTT9=
EXTT10=
EXTT11=
PLAYORDER=
